ply
format ascii 1.0
element vertex 17
property float x
property float y
property float z
property uchar red
property uchar green
property uchar blue
element face 20
property list uchar int vertex_indices
end_header
-3.4965205 -0.0034327079 -0.11230739 228 209 184
-3.4964635 0.026567291 -0.113376476 228 209 183
-3.4964995 0.056567285 -0.112699494 227 208 182
-3.4965172 0.08656728 -0.11236987 227 207 181
-3.4964693 0.116567284 -0.11326739 229 209 183
-3.4947417 -0.0034327079 -0.11185213 228 209 184
-3.4977393 -0.0034327079 -0.1120121 228 209 184
-3.4877462 0.026567291 -0.11147879 228 209 183
-3.5036666 0.026567291 -0.11232845 228 209 183
-3.4912736 0.056567285 -0.111667044 228 209 183
-3.510658 0.056567285 -0.11270158 227 208 182
-3.4930408 0.08656728 -0.11176135 227 207 181
-3.5106976 0.08656728 -0.11270369 228 208 182
-3.4874396 0.116567284 -0.11146242 231 210 185
-3.5022755 0.116567284 -0.1122542 229 209 183
-3.4965398 -0.017691966 -0.11194809 228 209 184
-3.4965398 0.12824178 -0.11194809 230 211 185
3 5 15 0
3 0 15 6
3 7 5 0
3 1 7 0
3 1 0 6
3 8 1 6
3 9 7 1
3 2 9 1
3 2 1 8
3 10 2 8
3 11 9 2
3 3 11 2
3 3 2 10
3 12 3 10
3 13 11 3
3 4 13 3
3 4 3 12
3 14 4 12
3 13 4 16
3 4 14 16